<svg width="1395" height="299" viewBox="0 0 1395 299" fill="none" xmlns="http://www.w3.org/2000/svg">
<path d="M287.606 16.4165C294.302 16.4165 297.65 18.9355 297.65 23.9734V25.5928C297.65 29.1913 293 34.4092 283.7 41.2464C274.772 47.7237 269.006 54.381 266.402 61.2182L183.26 263.636C180.656 271.553 175.262 275.511 167.078 275.511H143.642C136.202 275.511 130.622 271.553 126.902 263.636L27.5782 61.2182C24.6022 55.1007 19.5802 48.6234 12.5122 41.7862C5.44416 34.9489 1.91016 29.5511 1.91016 25.5928V23.9734C1.91016 18.9355 5.25816 16.4165 11.9542 16.4165H105.14C111.464 16.4165 114.626 19.1154 114.626 24.5132V26.1325C114.626 28.6515 112.766 31.7103 109.046 35.3088C105.698 38.9073 102.908 42.5059 100.676 46.1044C98.816 49.3431 99.002 54.7409 101.234 62.2978L169.868 230.169L235.154 69.8547C238.13 59.0591 238.13 51.6821 235.154 47.7237C232.178 43.4055 228.086 39.4471 222.878 35.8486C218.042 31.8902 215.624 28.6515 215.624 26.1325V24.5132C215.624 19.1154 218.972 16.4165 225.668 16.4165H287.606ZM549.099 226.931C549.843 234.848 551.889 241.145 555.237 245.823C558.957 250.141 562.491 252.84 565.839 253.92C569.559 254.999 572.721 256.439 575.325 258.238C578.301 260.037 579.789 262.376 579.789 265.255C579.789 274.252 564.723 278.75 534.591 278.75C519.711 278.75 508.737 276.591 501.669 272.272C494.973 267.594 491.067 258.958 489.951 246.363C475.071 269.394 449.217 280.909 412.389 280.909C381.141 280.909 355.845 273.892 336.501 259.857C317.529 245.463 308.043 225.311 308.043 199.402C307.671 173.852 317.157 154.06 336.501 140.026C355.845 125.632 380.211 118.435 409.599 118.435C436.383 118.435 457.959 124.552 474.327 136.787L473.211 125.992C469.863 92.8854 463.911 68.7752 455.355 53.6613C446.799 38.5475 433.221 30.9906 414.621 30.9906C403.089 30.9906 393.417 34.4092 385.605 41.2464C378.165 48.0836 372.957 55.6405 369.981 63.9171C367.377 71.8339 363.471 79.2109 358.263 86.0481C353.055 92.8854 346.545 96.304 338.733 96.304C330.549 96.304 323.853 94.1448 318.645 89.8266C313.809 85.1485 311.391 79.031 311.391 71.4741C311.391 54.2011 321.063 39.807 340.407 28.2917C360.123 16.7763 384.861 11.0187 414.621 11.0187C449.589 11.0187 477.861 21.0946 499.437 41.2464C521.013 61.0383 533.847 88.3872 537.939 123.293L549.099 226.931ZM430.803 260.397C446.055 260.397 458.331 254.999 467.631 244.204C477.303 233.408 481.767 220.633 481.023 205.879L479.349 189.146C478.233 173.672 472.839 161.437 463.167 152.441C453.495 143.445 441.219 138.947 426.339 138.947C410.715 138.947 398.067 143.805 388.395 153.521C378.723 162.877 373.887 175.652 373.887 191.845C373.887 210.917 379.095 227.111 389.511 240.425C400.299 253.74 414.063 260.397 430.803 260.397ZM1055.48 230.169C1055.85 238.086 1059.2 245.283 1065.52 251.761C1072.22 258.238 1075.57 263.096 1075.57 266.335V268.494C1075.57 273.532 1071.66 276.051 1063.85 276.051H981.821C974.009 276.051 970.103 273.532 970.103 268.494V266.335C970.103 263.096 973.451 258.418 980.147 252.3C986.843 245.823 990.005 238.626 989.633 230.709L984.053 128.691C982.565 96.304 976.799 72.9135 966.755 58.5193C957.083 44.1252 943.133 36.9281 924.905 36.9281C909.653 36.9281 896.633 43.0456 885.845 55.2807C875.429 67.1558 869.849 82.2697 869.105 100.622C870.593 107.819 871.337 116.456 871.337 126.532V230.709C871.337 238.626 874.499 245.823 880.823 252.3C887.519 258.418 890.867 263.096 890.867 266.335V268.494C890.867 273.532 886.961 276.051 879.149 276.051H798.239C790.055 276.051 785.963 273.532 785.963 268.494V266.335C785.963 263.096 789.125 258.418 795.449 252.3C802.145 245.823 805.493 238.626 805.493 230.709V122.753C805.493 95.7642 799.913 74.7128 788.753 59.5989C777.965 44.4851 764.015 36.9281 746.903 36.9281C730.163 36.9281 716.399 43.0456 705.611 55.2807C694.823 67.1558 689.057 82.4496 688.313 101.162L688.871 230.709C688.871 238.626 692.591 245.823 700.031 252.3C707.471 258.418 711.191 263.096 711.191 266.335V268.494C711.191 273.532 707.285 276.051 699.473 276.051H612.983C604.799 276.051 600.707 273.532 600.707 268.494V266.335C600.707 263.096 604.427 258.418 611.867 252.3C619.307 245.823 623.027 238.626 623.027 230.709V86.0481C623.027 79.5708 620.981 74.173 616.889 69.8547C612.797 65.5365 608.705 61.938 604.613 59.0591C600.521 56.1803 598.475 53.1215 598.475 49.8829V48.2635C598.475 44.665 601.823 41.4263 608.519 38.5475L665.435 13.1778C671.387 10.6588 675.851 10.4789 678.827 12.638C681.803 14.4373 683.291 17.8559 683.291 22.8939V54.7409C691.475 41.4263 702.449 30.8106 716.213 22.8939C730.349 14.9771 745.973 11.0187 763.085 11.0187C783.545 11.0187 801.959 15.6968 818.327 25.053C835.067 34.4092 848.087 47.5438 857.387 64.4569C864.455 47.5438 875.801 34.4092 891.425 25.053C907.049 15.6968 924.719 11.0187 944.435 11.0187C973.451 11.0187 997.259 20.5548 1015.86 39.627C1034.83 58.3394 1045.81 88.5671 1048.78 130.31L1055.48 230.169ZM1263.18 11.0187C1298.52 11.0187 1328.83 23.0738 1354.13 47.184C1379.8 70.9343 1392.63 102.421 1392.63 141.646C1392.63 181.949 1379.98 215.236 1354.69 241.505C1329.76 267.774 1299.45 280.909 1263.73 280.909C1233.6 280.909 1209.05 271.373 1190.08 252.3V350.001C1190.08 357.917 1193.8 364.935 1201.24 371.052C1209.05 377.529 1212.96 382.388 1212.96 385.626V387.246C1212.96 392.643 1208.86 395.342 1200.68 395.342H1115.86C1107.68 395.342 1103.59 392.643 1103.59 387.246V385.626C1103.59 382.388 1107.12 377.529 1114.19 371.052C1121.26 364.935 1124.79 357.917 1124.79 350.001V85.5084C1124.79 77.9514 1120.7 71.2941 1112.52 65.5365C1104.7 59.7788 1100.8 55.1007 1100.8 51.5022V49.3431C1100.8 44.665 1104.15 40.8865 1110.84 38.0077L1162.18 13.7176C1174.45 7.60008 1180.59 10.4789 1180.59 22.3541L1180.03 52.042C1187.85 39.0873 1199.01 29.0114 1213.51 21.8143C1228.02 14.6172 1244.58 11.0187 1263.18 11.0187ZM1255.92 260.397C1278.24 260.397 1295.54 251.761 1307.82 234.488C1320.46 217.215 1326.79 192.925 1326.79 161.617C1326.79 122.753 1319.35 91.4459 1304.47 67.6956C1289.96 43.5854 1270.8 31.5303 1246.99 31.5303C1232.86 31.5303 1220.21 36.5683 1209.05 46.6442C1198.26 56.3602 1191.94 68.7752 1190.08 83.889V183.748C1190.08 203.54 1196.77 221.353 1210.17 237.187C1223.56 252.66 1238.81 260.397 1255.92 260.397Z" fill="white"/>
</svg>
