<svg width="119" height="34" viewBox="0 0 119 34" fill="none" xmlns="http://www.w3.org/2000/svg">
<path d="M24.5353 1.39829C25.1065 1.39829 25.3921 1.61282 25.3921 2.04189V2.17981C25.3921 2.48629 24.9954 2.93068 24.2021 3.51299C23.4405 4.06465 22.9486 4.63164 22.7265 5.21395L15.6341 22.4534C15.4119 23.1276 14.9518 23.4648 14.2537 23.4648H12.2545C11.6198 23.4648 11.1438 23.1276 10.8265 22.4534L2.35367 5.21395C2.0998 4.69293 1.6714 4.14127 1.06846 3.55896C0.465529 2.97665 0.164062 2.51693 0.164062 2.17981V2.04189C0.164062 1.61282 0.449663 1.39829 1.02087 1.39829H8.97005C9.50952 1.39829 9.77925 1.62815 9.77925 2.08786V2.22578C9.77925 2.44031 9.62058 2.70082 9.30325 3.0073C9.01765 3.31378 8.77965 3.62026 8.58925 3.92674C8.43058 4.20257 8.44645 4.66229 8.63685 5.30589L14.4917 19.6031L20.0609 5.9495C20.3147 5.03006 20.3147 4.40178 20.0609 4.06465C19.807 3.69688 19.4579 3.35975 19.0137 3.05327C18.6011 2.71615 18.3949 2.44031 18.3949 2.22578V2.08786C18.3949 1.62815 18.6805 1.39829 19.2517 1.39829H24.5353ZM46.8418 19.3273C46.9053 20.0016 47.0798 20.5379 47.3654 20.9363C47.6827 21.3041 47.9842 21.5339 48.2698 21.6259C48.5871 21.7178 48.8569 21.8404 49.079 21.9937C49.3329 22.1469 49.4598 22.3461 49.4598 22.5913C49.4598 23.3575 48.1746 23.7406 45.6042 23.7406C44.3349 23.7406 43.3987 23.5567 42.7958 23.1889C42.2246 22.7905 41.8914 22.055 41.7962 20.9823C40.5269 22.9438 38.3214 23.9245 35.1798 23.9245C32.5142 23.9245 30.3563 23.3269 28.7062 22.1316C27.0878 20.9057 26.2786 19.1894 26.2786 16.9827C26.2469 14.8067 27.0561 13.1211 28.7062 11.9258C30.3563 10.6999 32.4349 10.087 34.9418 10.087C37.2266 10.087 39.0671 10.608 40.4634 11.65L40.3682 10.7306C40.0826 7.91096 39.5749 5.85755 38.845 4.57034C38.1151 3.28313 36.9569 2.63953 35.3702 2.63953C34.3865 2.63953 33.5614 2.93068 32.895 3.51299C32.2603 4.0953 31.8161 4.73891 31.5622 5.44381C31.3401 6.11806 31.0069 6.74634 30.5626 7.32865C30.1183 7.91096 29.563 8.20212 28.8966 8.20212C28.1985 8.20212 27.6273 8.01823 27.183 7.65045C26.7705 7.25203 26.5642 6.73102 26.5642 6.08741C26.5642 4.61631 27.3893 3.3904 29.0394 2.40967C30.7213 1.42893 32.8315 0.938568 35.3702 0.938568C38.3531 0.938568 40.7649 1.79671 42.6054 3.51299C44.4459 5.19862 45.5407 7.52786 45.8898 10.5007L46.8418 19.3273ZM36.7506 22.1776C38.0517 22.1776 39.0989 21.7178 39.8922 20.7984C40.7173 19.879 41.0981 18.791 41.0346 17.5344L40.8918 16.1093C40.7966 14.7914 40.3365 13.7494 39.5114 12.9832C38.6863 12.217 37.6391 11.8339 36.3698 11.8339C35.037 11.8339 33.9581 12.2476 33.133 13.0751C32.3079 13.872 31.8954 14.96 31.8954 16.3391C31.8954 17.9635 32.3397 19.3426 33.2282 20.4766C34.1485 21.6106 35.3226 22.1776 36.7506 22.1776ZM90.0383 19.6031C90.07 20.2774 90.3556 20.8903 90.8951 21.442C91.4663 21.9937 91.7519 22.4074 91.7519 22.6832V22.8671C91.7519 23.2962 91.4187 23.5107 90.7523 23.5107H83.7551C83.0887 23.5107 82.7555 23.2962 82.7555 22.8671V22.6832C82.7555 22.4074 83.0411 22.009 83.6123 21.488C84.1835 20.9363 84.4532 20.3234 84.4215 19.6491L83.9455 10.9604C83.8185 8.20212 83.3267 6.21 82.4699 4.98409C81.6448 3.75817 80.4548 3.14522 78.8999 3.14522C77.5988 3.14522 76.4881 3.66623 75.5679 4.70826C74.6793 5.71964 74.2033 7.00685 74.1399 8.56989C74.2668 9.18285 74.3303 9.9184 74.3303 10.7765V19.6491C74.3303 20.3234 74.6 20.9363 75.1395 21.488C75.7107 22.009 75.9963 22.4074 75.9963 22.6832V22.8671C75.9963 23.2962 75.6631 23.5107 74.9967 23.5107H68.0947C67.3965 23.5107 67.0475 23.2962 67.0475 22.8671V22.6832C67.0475 22.4074 67.3172 22.009 67.8567 21.488C68.4279 20.9363 68.7135 20.3234 68.7135 19.6491V10.4547C68.7135 8.15615 68.2375 6.36324 67.2855 5.07603C66.3652 3.78882 65.1752 3.14522 63.7155 3.14522C62.2875 3.14522 61.1133 3.66623 60.1931 4.70826C59.2728 5.71964 58.7809 7.02217 58.7175 8.61586L58.7651 19.6491C58.7651 20.3234 59.0824 20.9363 59.7171 21.488C60.3517 22.009 60.6691 22.4074 60.6691 22.6832V22.8671C60.6691 23.2962 60.3359 23.5107 59.6695 23.5107H52.2915C51.5933 23.5107 51.2443 23.2962 51.2443 22.8671V22.6832C51.2443 22.4074 51.5616 22.009 52.1963 21.488C52.8309 20.9363 53.1483 20.3234 53.1483 19.6491V7.32865C53.1483 6.77699 52.9737 6.31727 52.6247 5.9495C52.2756 5.58172 51.9265 5.27524 51.5775 5.03006C51.2284 4.78488 51.0539 4.52437 51.0539 4.24854V4.11062C51.0539 3.80415 51.3395 3.52831 51.9107 3.28313L56.7659 1.12246C57.2736 0.90792 57.6544 0.892596 57.9083 1.07648C58.1621 1.22972 58.2891 1.52088 58.2891 1.94995V4.66229C58.9872 3.52831 59.9233 2.6242 61.0975 1.94995C62.3033 1.27569 63.6361 0.938568 65.0959 0.938568C66.8412 0.938568 68.412 1.33699 69.8083 2.13384C71.2363 2.93068 72.3469 4.04933 73.1403 5.48978C73.7432 4.04933 74.7111 2.93068 76.0439 2.13384C77.3767 1.33699 78.884 0.938568 80.5659 0.938568C83.0411 0.938568 85.072 1.75074 86.6587 3.37508C88.2771 4.96877 89.2132 7.54319 89.4671 11.0983L90.0383 19.6031ZM107.756 0.938568C110.771 0.938568 113.357 1.96527 115.515 4.01868C117.704 6.04144 118.799 8.72313 118.799 12.0638C118.799 15.4963 117.72 18.3312 115.562 20.5685C113.436 22.8058 110.85 23.9245 107.803 23.9245C105.233 23.9245 103.139 23.1123 101.52 21.488V29.8089C101.52 30.4831 101.838 31.0808 102.472 31.6018C103.139 32.1534 103.472 32.5672 103.472 32.843V32.9809C103.472 33.4407 103.123 33.6705 102.425 33.6705H95.1895C94.4913 33.6705 94.1423 33.4407 94.1423 32.9809V32.843C94.1423 32.5672 94.4437 32.1534 95.0467 31.6018C95.6496 31.0808 95.9511 30.4831 95.9511 29.8089V7.28268C95.9511 6.63908 95.602 6.07209 94.9039 5.58172C94.2375 5.09136 93.9043 4.69293 93.9043 4.38646V4.20257C93.9043 3.80415 94.1899 3.48234 94.7611 3.23716L99.1403 1.16843C100.187 0.647413 100.711 0.892596 100.711 1.90398L100.663 4.43243C101.33 3.3291 102.282 2.47096 103.519 1.858C104.757 1.24505 106.169 0.938568 107.756 0.938568ZM107.137 22.1776C109.041 22.1776 110.517 21.442 111.564 19.9709C112.643 18.4998 113.182 16.4311 113.182 13.7647C113.182 10.4547 112.548 7.78837 111.278 5.76561C110.041 3.7122 108.406 2.6855 106.375 2.6855C105.17 2.6855 104.091 3.11457 103.139 3.97271C102.218 4.8002 101.679 5.85755 101.52 7.14477V15.6496C101.52 17.3352 102.091 18.8523 103.234 20.2008C104.376 21.5186 105.677 22.1776 107.137 22.1776Z" fill="#FAFAFA"/>
</svg>
