<svg width="158" height="80" viewBox="0 0 158 80" fill="none" xmlns="http://www.w3.org/2000/svg">
<path fill-rule="evenodd" clip-rule="evenodd" d="M17.9868 4.80772C17.9868 4.80772 19.8172 5.47963 21.7599 3.34664C22.9746 2.01261 23.1025 2.07532 23.1025 2.07532C23.1025 2.07532 21.6017 1.38143 20.2893 2.64786C19.6305 3.27969 18.975 3.91495 18.3229 4.55362L17.9868 4.80772ZM13.5146 4.80772C13.5146 4.80772 15.345 5.47963 17.2876 3.34664C18.5024 2.01261 18.6311 2.07532 18.6311 2.07532C18.6311 2.07532 17.1294 1.38143 15.8171 2.64786C15.1583 3.27942 14.5031 3.91468 13.8515 4.55362L13.5146 4.80772ZM15.813 5.44298C15.813 5.44298 17.6434 4.77108 19.5852 6.90406C20.8 8.2381 20.9279 8.17538 20.9279 8.17538C20.9279 8.17538 19.4262 8.86928 18.1147 7.60284C17.4558 6.97161 16.8006 6.33662 16.1491 5.69789L15.813 5.44298ZM22.8648 4.80772C22.8648 4.80772 24.6952 5.47963 26.6378 3.34664C27.8526 2.01261 27.9805 2.07532 27.9805 2.07532C27.9805 2.07532 26.4796 1.38143 25.1665 2.64786C24.5077 3.27942 23.8524 3.91468 23.2009 4.55362L22.8648 4.80772ZM20.6902 5.44298C20.6902 5.44298 22.5205 4.77108 24.4632 6.90406C25.678 8.2381 25.8058 8.17538 25.8058 8.17538C25.8058 8.17538 24.305 8.86928 22.9927 7.60284C22.3341 6.971 21.6786 6.33601 21.0262 5.69789L20.6902 5.44298ZM27.7419 4.80772C27.7419 4.80772 29.5715 5.47963 31.5142 3.34664C32.7297 2.01261 32.8568 2.07532 32.8568 2.07532C32.8568 2.07532 31.3551 1.38143 30.0436 2.64786C29.3848 3.27969 28.7293 3.91495 28.0772 4.55362L27.7419 4.80772ZM25.5681 5.44298C25.5681 5.44298 27.3977 4.77108 29.3403 6.90406C30.5543 8.2381 30.683 8.17538 30.683 8.17538C30.683 8.17538 29.183 8.86846 27.869 7.60284C27.2108 6.97094 26.5556 6.33595 25.9034 5.69789L25.5681 5.44298ZM32.6191 4.80772C32.6191 4.80772 34.4495 5.47963 36.3921 3.34664C37.6069 2.01261 37.7356 2.07532 37.7356 2.07532C37.7356 2.07532 36.2339 1.38143 34.9216 2.64786C34.2628 3.27942 33.6076 3.91468 32.956 4.55362L32.6191 4.80772ZM30.4453 5.44298C30.4453 5.44298 32.2765 4.77108 34.2183 6.90406C35.4323 8.2381 35.561 8.17538 35.561 8.17538C35.561 8.17538 34.0593 8.86928 32.7478 7.60284C31.1166 6.03099 30.7814 5.69789 30.7814 5.69789L30.4453 5.44298ZM37.4971 4.80772C37.4971 4.80772 39.3274 5.47963 41.2701 3.34664C42.4849 2.01261 42.6127 2.07532 42.6127 2.07532C42.6127 2.07532 41.1119 1.38143 39.7987 2.64786C39.1399 3.27942 38.4847 3.91468 37.8331 4.55362L37.4971 4.80772ZM35.3224 5.44298C35.3224 5.44298 37.152 4.77108 39.0955 6.90406C40.3102 8.2381 40.4389 8.17538 40.4389 8.17538C40.4389 8.17538 38.9373 8.86928 37.6249 7.60284C36.9664 6.971 36.3109 6.33601 35.6585 5.69789L35.3224 5.44298ZM42.3734 4.80772C42.3734 4.80772 44.2038 5.47963 46.1464 3.34664C47.3612 2.01261 47.4891 2.07532 47.4891 2.07532C47.4891 2.07532 45.9882 1.38143 44.6759 2.64786C44.0174 3.27975 43.3622 3.91501 42.7103 4.55362L42.3734 4.80772ZM40.1996 5.44298C40.1996 5.44298 42.0299 4.77108 43.9718 6.90406C45.1866 8.2381 45.3153 8.17538 45.3153 8.17538C45.3153 8.17538 43.8144 8.86928 42.5013 7.60284C41.8427 6.97128 41.1875 6.33628 40.5357 5.69789L40.1996 5.44298ZM47.2514 4.80772C47.2514 4.80772 49.0817 5.47963 51.0244 3.34664C52.2384 2.01261 52.367 2.07532 52.367 2.07532C52.367 2.07532 50.8662 1.38143 49.5531 2.64786C48.8945 3.27975 48.2393 3.91501 47.5874 4.55362L47.2514 4.80772ZM45.0775 5.44298C45.0775 5.44298 46.9079 4.77108 48.8506 6.90406C50.0654 8.2381 50.1932 8.17538 50.1932 8.17538C50.1932 8.17538 48.6916 8.86928 47.3792 7.60284C46.7207 6.971 46.0652 6.33601 45.4128 5.69789L45.0775 5.44298ZM52.1285 4.80772C52.1285 4.80772 53.9589 5.47963 55.9015 3.34664C57.1163 2.01261 57.2442 2.07532 57.2442 2.07532C57.2442 2.07532 55.7433 1.38143 54.4302 2.64786C53.7714 3.27942 53.1162 3.91468 52.4646 4.55362L52.1285 4.80772ZM49.9547 5.44298C49.9547 5.44298 51.7851 4.77108 53.7277 6.90406C54.9425 8.2381 55.0704 8.17538 55.0704 8.17538C55.0704 8.17538 53.5687 8.86928 52.2564 7.60284C51.5978 6.97128 50.9426 6.33628 50.2908 5.69789L49.9547 5.44298ZM57.0057 4.80772C57.0057 4.80772 58.836 5.47963 60.7787 3.34664C61.9935 2.01261 62.1213 2.07532 62.1213 2.07532C62.1213 2.07532 60.6205 1.38143 59.3082 2.64786C58.6493 3.27942 57.9941 3.91468 57.3426 4.55362L57.0057 4.80772ZM54.8318 5.44298C54.8318 5.44298 56.6622 4.77108 58.6041 6.90406C59.8188 8.2381 59.9475 8.17538 59.9475 8.17538C59.9475 8.17538 58.4459 8.86928 57.1335 7.60284C56.475 6.971 55.8195 6.33601 55.1671 5.69789L54.8318 5.44298ZM61.8836 4.80772C61.8836 4.80772 63.714 5.47963 65.6567 3.34664C66.8706 2.01261 66.9993 2.07532 66.9993 2.07532C66.9993 2.07532 65.4985 1.38143 64.1853 2.64786C63.5265 3.27969 62.871 3.91495 62.2189 4.55362L61.8836 4.80772ZM59.7098 5.44298C59.7098 5.44298 61.5402 4.77108 63.482 6.90406C64.6976 8.2381 64.8255 8.17538 64.8255 8.17538C64.8255 8.17538 63.3238 8.86928 62.0115 7.60284C61.353 6.97128 60.6977 6.33628 60.0459 5.69789L59.7098 5.44298ZM66.7608 4.80772C66.7608 4.80772 68.5912 5.47963 70.533 3.34664C71.7478 2.01261 71.8765 2.07532 71.8765 2.07532C71.8765 2.07532 70.3748 1.38143 69.0625 2.64786C67.4313 4.21971 67.0969 4.55362 67.0969 4.55362L66.7608 4.80772ZM64.587 5.44298C64.587 5.44298 66.4173 4.77108 68.36 6.90406C69.574 8.2381 69.7027 8.17538 69.7027 8.17538C69.7027 8.17538 68.201 8.86928 66.8895 7.60284C65.2583 6.03099 64.923 5.69789 64.923 5.69789L64.587 5.44298ZM71.6379 4.80772C71.6379 4.80772 73.4683 5.47963 75.411 3.34664C76.6249 2.01261 76.7536 2.07532 76.7536 2.07532C76.7536 2.07532 75.2528 1.38143 73.9404 2.64786C73.2816 3.27942 72.6264 3.91468 71.9748 4.55362L71.6379 4.80772ZM69.4641 5.44298C69.4641 5.44298 71.2945 4.77108 73.2363 6.90406C74.4511 8.2381 74.5798 8.17538 74.5798 8.17538C74.5798 8.17538 73.0781 8.86928 71.7666 7.60284C71.1081 6.971 70.4526 6.33601 69.8002 5.69789L69.4641 5.44298ZM76.5159 4.80772C76.5159 4.80772 78.3463 5.47963 80.2898 3.34664C81.5029 2.01261 81.6316 2.07532 81.6316 2.07532C81.6316 2.07532 80.1316 1.38143 78.8184 2.64786C78.1599 3.27975 77.5047 3.91501 76.8528 4.55362L76.5159 4.80772ZM74.3413 5.44298C74.3413 5.44298 76.1716 4.77108 78.1143 6.90406C79.3291 8.2381 79.4569 8.17538 79.4569 8.17538C79.4569 8.17538 77.9561 8.86928 76.643 7.60284C75.9844 6.971 75.3289 6.33601 74.6765 5.69789L74.3413 5.44298ZM81.3922 4.80772C81.3922 4.80772 83.2218 5.47963 85.1661 3.34664C86.3809 2.01261 86.5079 2.07532 86.5079 2.07532C86.5079 2.07532 85.0079 1.38143 83.6947 2.64786C83.0362 3.27975 82.381 3.91501 81.7291 4.55362L81.3922 4.80772ZM79.2184 5.44298C79.2184 5.44298 81.0496 4.77108 82.9914 6.90406C84.2062 8.2381 84.3349 8.17538 84.3349 8.17538C84.3349 8.17538 82.8333 8.86928 81.5218 7.60284C79.8906 6.03099 79.5545 5.69789 79.5545 5.69789L79.2184 5.44298ZM86.2702 4.80772C86.2702 4.80772 88.0998 5.47963 90.0424 3.34664C91.2572 2.01261 91.3859 2.07532 91.3859 2.07532C91.3859 2.07532 89.8859 1.38143 88.5727 2.64786C87.9142 3.27975 87.259 3.91501 86.6071 4.55362L86.2702 4.80772ZM84.0964 5.44298C84.0964 5.44298 85.9259 4.77108 87.8686 6.90406C89.0834 8.2381 89.2121 8.17538 89.2121 8.17538C89.2121 8.17538 87.712 8.86928 86.3989 7.60284C84.7677 6.03099 84.4316 5.69789 84.4316 5.69789L84.0964 5.44298ZM91.1482 4.80772C91.1482 4.80772 92.9777 5.47963 94.9204 3.34664C96.1352 2.01261 96.2639 2.07532 96.2639 2.07532C96.2639 2.07532 94.7622 1.38143 93.449 2.64786C92.7905 3.27975 92.1353 3.91501 91.4834 4.55362L91.1482 4.80772ZM88.9744 5.44298C88.9744 5.44298 90.8039 4.77108 92.7466 6.90406C93.9613 8.2381 94.09 8.17538 94.09 8.17538C94.09 8.17538 92.5884 8.86928 91.2769 7.60284C89.6457 6.03099 89.3096 5.69789 89.3096 5.69789L88.9744 5.44298ZM96.0245 4.80772C96.0245 4.80772 97.8541 5.47963 99.7967 3.34664C101.011 2.01261 101.14 2.07532 101.14 2.07532C101.14 2.07532 99.6402 1.38143 98.327 2.64786C96.6958 4.21971 96.3614 4.55362 96.3614 4.55362L96.0245 4.80772ZM93.8507 5.44298C93.8507 5.44298 95.6802 4.77108 97.6245 6.90406C98.8393 8.2381 98.9664 8.17538 98.9664 8.17538C98.9664 8.17538 97.4663 8.86928 96.1532 7.60284C95.495 6.97094 94.8398 6.33595 94.1876 5.69789L93.8507 5.44298ZM100.903 4.80772C100.903 4.80772 102.733 5.47963 104.676 3.34664C105.89 2.01261 106.019 2.07532 106.019 2.07532C106.019 2.07532 104.517 1.38143 103.204 2.64786C102.546 3.27975 101.89 3.91501 101.239 4.55362L100.903 4.80772ZM98.7287 5.44298C98.7287 5.44298 100.558 4.77108 102.501 6.90406C103.716 8.2381 103.844 8.17538 103.844 8.17538C103.844 8.17538 102.343 8.86928 101.031 7.60284C99.4 6.03099 99.0639 5.69789 99.0639 5.69789L98.7287 5.44298ZM105.78 4.80772C105.78 4.80772 107.609 5.47963 109.552 3.34664C110.767 2.01261 110.895 2.07532 110.895 2.07532C110.895 2.07532 109.395 1.38143 108.082 2.64786C106.451 4.21971 106.117 4.55362 106.117 4.55362L105.78 4.80772ZM103.607 5.44298C103.607 5.44298 105.436 4.77108 107.377 6.90406C108.592 8.2381 108.721 8.17538 108.721 8.17538C108.721 8.17538 107.221 8.86928 105.908 7.60284C105.249 6.97094 104.594 6.33595 103.942 5.69789L103.607 5.44298ZM110.658 4.80772C110.658 4.80772 112.487 5.47963 114.43 3.34664C115.645 2.01261 115.773 2.07532 115.773 2.07532C115.773 2.07532 114.272 1.38143 112.958 2.64786C112.3 3.27975 111.645 3.91501 110.993 4.55362L110.658 4.80772ZM108.484 5.44298C108.484 5.44298 110.313 4.77108 112.256 6.90406C113.471 8.2381 113.599 8.17538 113.599 8.17538C113.599 8.17538 112.098 8.86928 110.786 7.60284C110.127 6.97161 109.472 6.33662 108.821 5.69789L108.484 5.44298ZM115.534 4.80772C115.534 4.80772 117.363 5.47963 119.308 3.34664C120.523 2.01261 120.651 2.07532 120.651 2.07532C120.651 2.07532 119.15 1.38143 117.836 2.64786C116.205 4.21971 115.871 4.55362 115.871 4.55362L115.534 4.80772ZM113.362 5.44298C113.362 5.44298 115.191 4.77108 117.134 6.90406C118.349 8.2381 118.476 8.17538 118.476 8.17538C118.476 8.17538 116.976 8.86928 115.663 7.60284C115.004 6.97094 114.349 6.33595 113.697 5.69789L113.362 5.44298ZM120.412 4.80772C120.412 4.80772 122.241 5.47963 124.184 3.34664C125.399 2.01261 125.528 2.07532 125.528 2.07532C125.528 2.07532 124.026 1.38143 122.713 2.64786C122.054 3.27975 121.399 3.91501 120.747 4.55362L120.412 4.80772ZM118.238 5.44298C118.238 5.44298 120.068 4.77108 122.01 6.90406C123.225 8.2381 123.354 8.17538 123.354 8.17538C123.354 8.17538 121.852 8.86928 120.541 7.60284C118.909 6.03099 118.573 5.69789 118.573 5.69789L118.238 5.44298ZM125.289 4.80772C125.289 4.80772 127.119 5.47963 129.063 3.34664C130.278 2.01261 130.405 2.07532 130.405 2.07532C130.405 2.07532 128.903 1.38143 127.592 2.64786C125.96 4.21971 125.626 4.55362 125.626 4.55362L125.289 4.80772ZM123.114 5.44298C123.114 5.44298 124.946 4.77108 126.888 6.90406C128.103 8.2381 128.23 8.17538 128.23 8.17538C128.23 8.17538 126.73 8.86928 125.417 7.60284C124.759 6.97094 124.103 6.33595 123.451 5.69789L123.114 5.44298ZM130.167 4.80772C130.167 4.80772 131.997 5.47963 133.939 3.34664C135.154 2.01261 135.283 2.07532 135.283 2.07532C135.283 2.07532 133.781 1.38143 132.47 2.64786C130.838 4.21971 130.504 4.55362 130.504 4.55362L130.167 4.80772ZM127.992 5.44298C127.992 5.44298 129.822 4.77108 131.765 6.90406C132.979 8.2381 133.108 8.17538 133.108 8.17538C133.108 8.17538 131.606 8.86928 130.295 7.60284C128.664 6.03099 128.328 5.69789 128.328 5.69789L127.992 5.44298ZM135.043 4.80772C135.043 4.80772 136.875 5.47963 138.817 3.34664C140.032 2.01261 140.159 2.07532 140.159 2.07532C140.159 2.07532 138.659 1.38143 137.346 2.64786C136.687 3.27975 136.032 3.91501 135.38 4.55362L135.043 4.80772ZM132.87 5.44298C132.87 5.44298 134.701 4.77108 136.643 6.90406C137.858 8.2381 137.985 8.17538 137.985 8.17538C137.985 8.17538 136.485 8.86928 135.172 7.60284C134.514 6.97094 133.859 6.33595 133.206 5.69789L132.87 5.44298ZM139.921 4.80772C139.921 4.80772 141.751 5.47963 143.694 3.34664C144.908 2.01261 145.037 2.07532 145.037 2.07532C145.037 2.07532 143.535 1.38143 142.224 2.64786C140.593 4.21971 140.257 4.55362 140.257 4.55362L139.921 4.80772ZM137.747 5.44298C137.747 5.44298 139.577 4.77108 141.521 6.90406C142.734 8.2381 142.863 8.17538 142.863 8.17538C142.863 8.17538 141.363 8.86928 140.05 7.60284C139.392 6.97094 138.737 6.33595 138.084 5.69789L137.747 5.44298ZM17.9868 74.4071C17.9868 74.4071 19.8172 75.0798 21.7599 72.9468C22.9746 71.6128 23.1025 71.6747 23.1025 71.6747C23.1025 71.6747 21.6017 70.9808 20.2893 72.2472C19.6308 72.8794 18.9753 73.5147 18.3229 74.153L17.9868 74.4071ZM13.5146 74.4071C13.5146 74.4071 15.345 75.0798 17.2876 72.9468C18.5024 71.6128 18.6311 71.6747 18.6311 71.6747C18.6311 71.6747 17.1294 70.9808 15.8171 72.2472C15.1586 72.8791 14.5034 73.5144 13.8515 74.153L13.5146 74.4071ZM15.813 75.0424C15.813 75.0424 17.6434 74.3713 19.5852 76.5042C20.8 77.8383 20.9279 77.7748 20.9279 77.7748C20.9279 77.7748 19.4262 78.4695 18.1147 77.203C16.4835 75.6304 16.1491 75.2973 16.1491 75.2973L15.813 75.0424ZM22.8648 74.4071C22.8648 74.4071 24.6952 75.0798 26.6378 72.9468C27.8526 71.6128 27.9805 71.6747 27.9805 71.6747C27.9805 71.6747 26.4796 70.9808 25.1665 72.2472C24.508 72.8791 23.8528 73.5144 23.2009 74.153L22.8648 74.4071ZM20.6902 75.0424C20.6902 75.0424 22.5205 74.3713 24.4632 76.5042C25.678 77.8383 25.8058 77.7748 25.8058 77.7748C25.8058 77.7748 24.305 78.4695 22.9927 77.203C22.3342 76.5709 21.6787 75.9356 21.0262 75.2973L20.6902 75.0424ZM27.7419 74.4071C27.7419 74.4071 29.5715 75.0798 31.5142 72.9468C32.7297 71.6128 32.8568 71.6747 32.8568 71.6747C32.8568 71.6747 31.3551 70.9808 30.0436 72.2472C29.3851 72.8794 28.7296 73.5147 28.0772 74.153L27.7419 74.4071ZM25.5681 75.0424C25.5681 75.0424 27.3977 74.3713 29.3403 76.5042C30.5543 77.8383 30.683 77.7748 30.683 77.7748C30.683 77.7748 29.1821 78.4695 27.869 77.203C27.2108 76.5708 26.5556 75.9355 25.9034 75.2973L25.5681 75.0424ZM32.6191 74.4071C32.6191 74.4071 34.4495 75.0798 36.3921 72.9468C37.6069 71.6128 37.7356 71.6747 37.7356 71.6747C37.7356 71.6747 36.2339 70.9808 34.9216 72.2472C34.2631 72.8791 33.6079 73.5144 32.956 74.153L32.6191 74.4071ZM30.4453 75.0424C30.4453 75.0424 32.2765 74.3713 34.2183 76.5042C35.4323 77.8383 35.561 77.7748 35.561 77.7748C35.561 77.7748 34.0593 78.4695 32.7478 77.203C31.1166 75.6304 30.7814 75.2973 30.7814 75.2973L30.4453 75.0424ZM37.4971 74.4071C37.4971 74.4071 39.3274 75.0798 41.2701 72.9468C42.4849 71.6128 42.6127 71.6747 42.6127 71.6747C42.6127 71.6747 41.1119 70.9808 39.7987 72.2472C39.1403 72.8791 38.485 73.5144 37.8331 74.153L37.4971 74.4071ZM35.3224 75.0424C35.3224 75.0424 37.152 74.3713 39.0955 76.5042C40.3102 77.8383 40.4389 77.7748 40.4389 77.7748C40.4389 77.7748 38.9373 78.4695 37.6249 77.203C36.9664 76.5709 36.3109 75.9356 35.6585 75.2973L35.3224 75.0424ZM42.3734 74.4071C42.3734 74.4071 44.2038 75.0798 46.1464 72.9468C47.3612 71.6128 47.4891 71.6747 47.4891 71.6747C47.4891 71.6747 45.9882 70.9808 44.6759 72.2472C44.0177 72.8795 43.3625 73.5147 42.7103 74.153L42.3734 74.4071ZM40.1996 75.0424C40.1996 75.0424 42.0299 74.3713 43.9718 76.5042C45.1866 77.8383 45.3153 77.7748 45.3153 77.7748C45.3153 77.7748 43.8144 78.4695 42.5013 77.203C41.8428 76.5711 41.1876 75.9359 40.5357 75.2973L40.1996 75.0424ZM47.2514 74.4071C47.2514 74.4071 49.0817 75.0798 51.0244 72.9468C52.2384 71.6128 52.367 71.6747 52.367 71.6747C52.367 71.6747 50.8662 70.9808 49.5531 72.2472C48.8949 72.8795 48.2397 73.5147 47.5874 74.153L47.2514 74.4071ZM45.0775 75.0424C45.0775 75.0424 46.9079 74.3713 48.8506 76.5042C50.0654 77.8383 50.1932 77.7748 50.1932 77.7748C50.1932 77.7748 48.6916 78.4695 47.3792 77.203C46.7207 76.5709 46.0653 75.9356 45.4128 75.2973L45.0775 75.0424ZM52.1285 74.4071C52.1285 74.4071 53.9589 75.0798 55.9015 72.9468C57.1163 71.6128 57.2442 71.6747 57.2442 71.6747C57.2442 71.6747 55.7433 70.9808 54.4302 72.2472C53.7717 72.8791 53.1165 73.5144 52.4646 74.153L52.1285 74.4071ZM49.9547 75.0424C49.9547 75.0424 51.7851 74.3713 53.7277 76.5042C54.9425 77.8383 55.0704 77.7748 55.0704 77.7748C55.0704 77.7748 53.5687 78.4695 52.2564 77.203C51.5979 76.5711 50.9427 75.9359 50.2908 75.2973L49.9547 75.0424ZM57.0057 74.4071C57.0057 74.4071 58.836 75.0798 60.7787 72.9468C61.9935 71.6128 62.1213 71.6747 62.1213 71.6747C62.1213 71.6747 60.6205 70.9808 59.3082 72.2472C58.6497 72.8791 57.9945 73.5144 57.3426 74.153L57.0057 74.4071ZM54.8318 75.0424C54.8318 75.0424 56.6622 74.3713 58.6041 76.5042C59.8188 77.8383 59.9475 77.7748 59.9475 77.7748C59.9475 77.7748 58.4459 78.4695 57.1335 77.203C56.475 76.5709 55.8196 75.9356 55.1671 75.2973L54.8318 75.0424ZM61.8836 74.4071C61.8836 74.4071 63.714 75.0798 65.6567 72.9468C66.8706 71.6128 66.9993 71.6747 66.9993 71.6747C66.9993 71.6747 65.4985 70.9808 64.1853 72.2472C63.5268 72.8794 62.8713 73.5147 62.2189 74.153L61.8836 74.4071ZM59.7098 75.0424C59.7098 75.0424 61.5402 74.3713 63.482 76.5042C64.6976 77.8383 64.8255 77.7748 64.8255 77.7748C64.8255 77.7748 63.3238 78.4695 62.0115 77.203C61.353 76.5711 60.6978 75.9359 60.0459 75.2973L59.7098 75.0424ZM66.7608 74.4071C66.7608 74.4071 68.5912 75.0798 70.533 72.9468C71.7478 71.6128 71.8765 71.6747 71.8765 71.6747C71.8765 71.6747 70.3748 70.9808 69.0625 72.2472C67.4313 73.8199 67.0969 74.153 67.0969 74.153L66.7608 74.4071ZM64.587 75.0424C64.587 75.0424 66.4173 74.3713 68.36 76.5042C69.574 77.8383 69.7027 77.7748 69.7027 77.7748C69.7027 77.7748 68.201 78.4695 66.8895 77.203C65.2583 75.6304 64.923 75.2973 64.923 75.2973L64.587 75.0424ZM71.6379 74.4071C71.6379 74.4071 73.4683 75.0798 75.411 72.9468C76.6249 71.6128 76.7536 71.6747 76.7536 71.6747C76.7536 71.6747 75.2528 70.9808 73.9404 72.2472C73.2819 72.8791 72.6267 73.5144 71.9748 74.153L71.6379 74.4071ZM69.4641 75.0424C69.4641 75.0424 71.2945 74.3713 73.2363 76.5042C74.4511 77.8383 74.5798 77.7748 74.5798 77.7748C74.5798 77.7748 73.0781 78.4695 71.7666 77.203C71.1081 76.5709 70.4526 75.9356 69.8002 75.2973L69.4641 75.0424ZM76.5159 74.4071C76.5159 74.4071 78.3463 75.0798 80.2898 72.9468C81.5029 71.6128 81.6316 71.6747 81.6316 71.6747C81.6316 71.6747 80.1316 70.9808 78.8184 72.2472C78.1602 72.8795 77.505 73.5147 76.8528 74.153L76.5159 74.4071ZM74.3413 75.0424C74.3413 75.0424 76.1716 74.3713 78.1143 76.5042C79.3291 77.8383 79.4569 77.7748 79.4569 77.7748C79.4569 77.7748 77.9561 78.4695 76.643 77.203C75.9845 76.5709 75.329 75.9356 74.6765 75.2973L74.3413 75.0424ZM81.3922 74.4071C81.3922 74.4071 83.2218 75.0798 85.1661 72.9468C86.3809 71.6128 86.5079 71.6747 86.5079 71.6747C86.5079 71.6747 85.0079 70.9808 83.6947 72.2472C83.0366 72.8795 82.3814 73.5147 81.7291 74.153L81.3922 74.4071ZM79.2184 75.0424C79.2184 75.0424 81.0496 74.3713 82.9914 76.5042C84.2062 77.8383 84.3349 77.7748 84.3349 77.7748C84.3349 77.7748 82.8333 78.4695 81.5218 77.203C79.8906 75.6304 79.5545 75.2973 79.5545 75.2973L79.2184 75.0424ZM86.2702 74.4071C86.2702 74.4071 88.0998 75.0798 90.0424 72.9468C91.2572 71.6128 91.3859 71.6747 91.3859 71.6747C91.3859 71.6747 89.8859 70.9808 88.5727 72.2472C87.9145 72.8795 87.2593 73.5147 86.6071 74.153L86.2702 74.4071ZM84.0964 75.0424C84.0964 75.0424 85.9259 74.3713 87.8686 76.5042C89.0834 77.8383 89.2121 77.7748 89.2121 77.7748C89.2121 77.7748 87.712 78.4695 86.3989 77.203C84.7677 75.6304 84.4316 75.2973 84.4316 75.2973L84.0964 75.0424ZM91.1482 74.4071C91.1482 74.4071 92.9777 75.0798 94.9204 72.9468C96.1352 71.6128 96.2639 71.6747 96.2639 71.6747C96.2639 71.6747 94.7622 70.9808 93.449 72.2472C92.7909 72.8795 92.1357 73.5147 91.4834 74.153L91.1482 74.4071ZM88.9744 75.0424C88.9744 75.0424 90.8039 74.3713 92.7466 76.5042C93.9613 77.8383 94.09 77.7748 94.09 77.7748C94.09 77.7748 92.5884 78.4695 91.2769 77.203C89.6457 75.6304 89.3096 75.2973 89.3096 75.2973L88.9744 75.0424ZM96.0245 74.4071C96.0245 74.4071 97.8541 75.0798 99.7967 72.9468C101.011 71.6128 101.14 71.6747 101.14 71.6747C101.14 71.6747 99.6402 70.9808 98.327 72.2472C96.6958 73.8199 96.3614 74.153 96.3614 74.153L96.0245 74.4071ZM93.8507 75.0424C93.8507 75.0424 95.6802 74.3713 97.6245 76.5042C98.8393 77.8383 98.9664 77.7748 98.9664 77.7748C98.9664 77.7748 97.4663 78.4695 96.1532 77.203C95.495 76.5708 94.8398 75.9355 94.1876 75.2973L93.8507 75.0424ZM100.903 74.4071C100.903 74.4071 102.733 75.0798 104.676 72.9468C105.89 71.6128 106.019 71.6747 106.019 71.6747C106.019 71.6747 104.517 70.9808 103.204 72.2472C102.546 72.8795 101.891 73.5147 101.239 74.153L100.903 74.4071ZM98.7287 75.0424C98.7287 75.0424 100.558 74.3713 102.501 76.5042C103.716 77.8383 103.844 77.7748 103.844 77.7748C103.844 77.7748 102.343 78.4695 101.031 77.203C99.4 75.6304 99.0639 75.2973 99.0639 75.2973L98.7287 75.0424ZM105.78 74.4071C105.78 74.4071 107.609 75.0798 109.552 72.9468C110.767 71.6128 110.895 71.6747 110.895 71.6747C110.895 71.6747 109.395 70.9808 108.082 72.2472C106.451 73.8199 106.117 74.153 106.117 74.153L105.78 74.4071ZM103.607 75.0424C103.607 75.0424 105.436 74.3713 107.377 76.5042C108.592 77.8383 108.721 77.7748 108.721 77.7748C108.721 77.7748 107.221 78.4695 105.908 77.203C105.249 76.5708 104.594 75.9355 103.942 75.2973L103.607 75.0424ZM110.658 74.4071C110.658 74.4071 112.487 75.0798 114.43 72.9468C115.645 71.6128 115.773 71.6747 115.773 71.6747C115.773 71.6747 114.272 70.9808 112.958 72.2472C112.3 72.8795 111.645 73.5147 110.993 74.153L110.658 74.4071ZM108.484 75.0424C108.484 75.0424 110.313 74.3713 112.256 76.5042C113.471 77.8383 113.599 77.7748 113.599 77.7748C113.599 77.7748 112.098 78.4695 110.786 77.203C109.155 75.6304 108.821 75.2973 108.821 75.2973L108.484 75.0424ZM115.534 74.4071C115.534 74.4071 117.363 75.0798 119.308 72.9468C120.523 71.6128 120.651 71.6747 120.651 71.6747C120.651 71.6747 119.15 70.9808 117.836 72.2472C116.205 73.8199 115.871 74.153 115.871 74.153L115.534 74.4071ZM113.362 75.0424C113.362 75.0424 115.191 74.3713 117.134 76.5042C118.349 77.8383 118.476 77.7748 118.476 77.7748C118.476 77.7748 116.976 78.4695 115.663 77.203C115.004 76.5708 114.349 75.9355 113.697 75.2973L113.362 75.0424ZM120.412 74.4071C120.412 74.4071 122.241 75.0798 124.184 72.9468C125.399 71.6128 125.528 71.6747 125.528 71.6747C125.528 71.6747 124.026 70.9808 122.713 72.2472C122.055 72.8795 121.399 73.5147 120.747 74.153L120.412 74.4071ZM118.238 75.0424C118.238 75.0424 120.068 74.3713 122.01 76.5042C123.225 77.8383 123.354 77.7748 123.354 77.7748C123.354 77.7748 121.852 78.4695 120.541 77.203C118.909 75.6304 118.573 75.2973 118.573 75.2973L118.238 75.0424ZM125.289 74.4071C125.289 74.4071 127.119 75.0798 129.063 72.9468C130.278 71.6128 130.405 71.6747 130.405 71.6747C130.405 71.6747 128.903 70.9808 127.592 72.2472C125.96 73.8199 125.626 74.153 125.626 74.153L125.289 74.4071ZM123.114 75.0424C123.114 75.0424 124.946 74.3713 126.888 76.5042C128.103 77.8383 128.23 77.7748 128.23 77.7748C128.23 77.7748 126.73 78.4695 125.417 77.203C124.759 76.5708 124.104 75.9355 123.451 75.2973L123.114 75.0424ZM130.167 74.4071C130.167 74.4071 131.997 75.0798 133.939 72.9468C135.154 71.6128 135.283 71.6747 135.283 71.6747C135.283 71.6747 133.781 70.9808 132.47 72.2472C130.838 73.8199 130.504 74.153 130.504 74.153L130.167 74.4071ZM127.992 75.0424C127.992 75.0424 129.822 74.3713 131.765 76.5042C132.979 77.8383 133.108 77.7748 133.108 77.7748C133.108 77.7748 131.606 78.4695 130.295 77.203C128.664 75.6304 128.328 75.2973 128.328 75.2973L127.992 75.0424ZM135.043 74.4071C135.043 74.4071 136.875 75.0798 138.817 72.9468C140.032 71.6128 140.159 71.6747 140.159 71.6747C140.159 71.6747 138.659 70.9808 137.346 72.2472C136.688 72.8795 136.032 73.5147 135.38 74.153L135.043 74.4071ZM132.87 75.0424C132.87 75.0424 134.701 74.3713 136.643 76.5042C137.858 77.8383 137.985 77.7748 137.985 77.7748C137.985 77.7748 136.485 78.4695 135.172 77.203C134.514 76.5708 133.859 75.9355 133.206 75.2973L132.87 75.0424ZM139.921 74.4071C139.921 74.4071 141.751 75.0798 143.694 72.9468C144.908 71.6128 145.037 71.6747 145.037 71.6747C145.037 71.6747 143.535 70.9808 142.224 72.2472C140.593 73.8199 140.257 74.153 140.257 74.153L139.921 74.4071ZM137.747 75.0424C137.747 75.0424 139.577 74.3713 141.521 76.5042C142.734 77.8383 142.863 77.7748 142.863 77.7748C142.863 77.7748 141.363 78.4695 140.05 77.203C139.392 76.5708 138.737 75.9355 138.084 75.2973L137.747 75.0424ZM12.2605 74.0585C12.2605 74.0585 12.9367 72.2399 10.79 70.3097C9.4473 69.1027 9.51124 68.9749 9.51124 68.9749C9.51124 68.9749 8.81286 70.4669 10.0875 71.7708C11.6695 73.3907 12.0056 73.7246 12.0056 73.7246L12.2605 74.0585ZM12.8998 67.1921C12.8998 67.1921 12.2228 65.3735 14.3695 63.4441C15.7122 62.2371 15.6482 62.1092 15.6482 62.1092C15.6482 62.1092 16.3466 63.6013 15.0728 64.9052C14.4368 65.5592 13.7977 66.2102 13.1556 66.8582L12.8998 67.1921ZM12.8998 71.6356C12.8998 71.6356 12.2228 69.8178 14.3695 67.8876C15.7122 66.6814 15.6482 66.5536 15.6482 66.5536C15.6482 66.5536 16.3466 68.0448 15.0728 69.3487C14.4368 70.0027 13.7977 70.6537 13.1556 71.3017L12.8998 71.6356ZM12.2605 69.352C12.2605 69.352 12.9367 67.5341 10.79 65.6031C9.4473 64.3962 9.51124 64.2691 9.51124 64.2691C9.51124 64.2691 8.81286 65.7611 10.0875 67.065C11.6695 68.6849 12.0056 69.018 12.0056 69.018L12.2605 69.352ZM12.8998 62.3454C12.8998 62.3454 12.2228 60.5276 14.3695 58.5974C15.7122 57.3904 15.6482 57.2626 15.6482 57.2626C15.6482 57.2626 16.3466 58.7538 15.0728 60.0585C14.4368 60.7125 13.7977 61.3635 13.1556 62.0115L12.8998 62.3454ZM12.2605 64.5069C12.2605 64.5069 12.9367 62.6883 10.79 60.7573C9.4473 59.5511 9.51124 59.4233 9.51124 59.4233C9.51124 59.4233 8.81286 60.9145 10.0875 62.2184C11.6695 63.8391 12.0056 64.1714 12.0056 64.1714L12.2605 64.5069ZM12.8998 57.5004C12.8998 57.5004 12.2228 55.6818 14.3695 53.7508C15.7122 52.5446 15.6482 52.4167 15.6482 52.4167C15.6482 52.4167 16.3466 53.908 15.0728 55.2127C14.4365 55.8663 13.7974 56.5173 13.1556 57.1657L12.8998 57.5004ZM12.2605 59.6603C12.2605 59.6603 12.9367 57.8425 10.79 55.9114C9.4473 54.7053 9.51124 54.5774 9.51124 54.5774C9.51124 54.5774 8.81286 56.0686 10.0875 57.3733C11.6695 58.9924 12.0056 59.3263 12.0056 59.3263L12.2605 59.6603ZM12.8998 52.6537C12.8998 52.6537 12.2228 50.8359 14.3695 48.9057C15.7122 47.6988 15.6482 47.5701 15.6482 47.5701C15.6482 47.5701 16.3466 49.0629 15.0728 50.3668C14.4368 51.0208 13.7977 51.6718 13.1556 52.3198L12.8998 52.6537ZM12.2605 54.8136C12.2605 54.8136 12.9367 52.9958 10.79 51.0648C9.4473 49.8586 9.51124 49.7308 9.51124 49.7308C9.51124 49.7308 8.81286 51.222 10.0875 52.5259C11.6695 54.1466 12.0056 54.4797 12.0056 54.4797L12.2605 54.8136ZM12.8998 47.8079C12.8998 47.8079 12.2228 45.9901 14.3695 44.0591C15.7122 42.8529 15.6482 42.725 15.6482 42.725C15.6482 42.725 16.3466 44.2163 15.0728 45.521C14.4365 46.1746 13.7974 46.8257 13.1556 47.474L12.8998 47.8079ZM12.2605 49.9677C12.2605 49.9677 12.9367 48.1499 10.79 46.2189C9.4473 45.0128 9.51124 44.8849 9.51124 44.8849C9.51124 44.8849 8.81286 46.3761 10.0875 47.68C11.6695 49.2999 12.0056 49.6338 12.0056 49.6338L12.2605 49.9677ZM12.8998 42.962C12.8998 42.962 12.2228 41.1434 14.3695 39.214C15.7122 38.0079 15.6482 37.8792 15.6482 37.8792C15.6482 37.8792 16.3466 39.3712 15.0728 40.6751C14.4368 41.3291 13.7977 41.9801 13.1556 42.6281L12.8998 42.962ZM12.2605 45.1219C12.2605 45.1219 12.9367 43.3033 10.79 41.3739C9.4473 40.1669 9.51124 40.0391 9.51124 40.0391C9.51124 40.0391 8.81286 41.5303 10.0875 42.8342C11.6695 44.4549 12.0056 44.788 12.0056 44.788L12.2605 45.1219ZM12.8998 38.1162C12.8998 38.1162 12.2228 36.2976 14.3695 34.3674C15.7122 33.1604 15.6482 33.0333 15.6482 33.0333C15.6482 33.0333 16.3466 34.5246 15.0728 35.8293C14.4368 36.4833 13.7977 37.1343 13.1556 37.7823L12.8998 38.1162ZM12.2605 40.2761C12.2605 40.2761 12.9367 38.4583 10.79 36.5281C9.4473 35.3203 9.51124 35.194 9.51124 35.194C9.51124 35.194 8.81286 36.6852 10.0875 37.9891C11.6695 39.609 12.0056 39.9421 12.0056 39.9421L12.2605 40.2761ZM12.8998 33.2695C12.8998 33.2695 12.2228 31.4509 14.3695 29.5207C15.7122 28.3146 15.6482 28.1867 15.6482 28.1867C15.6482 28.1867 16.3466 29.6779 15.0728 30.9818C14.4366 31.6358 13.7975 32.2871 13.1556 32.9356L12.8998 33.2695ZM12.2605 35.4294C12.2605 35.4294 12.9367 33.6116 10.79 31.6814C9.4473 30.4744 9.51124 30.3474 9.51124 30.3474C9.51124 30.3474 8.81286 31.8386 10.0875 33.1425C11.6695 34.7624 12.0056 35.0963 12.0056 35.0963L12.2605 35.4294ZM12.8998 28.4245C12.8998 28.4245 12.2228 26.6051 14.3695 24.6757C15.7122 23.4695 15.6482 23.3408 15.6482 23.3408C15.6482 23.3408 16.3466 24.8329 15.0728 26.1368C14.4369 26.7911 13.7978 27.4424 13.1556 28.0906L12.8998 28.4245ZM12.2605 30.5836C12.2605 30.5836 12.9367 28.7649 10.79 26.8356C9.4473 25.6294 9.51124 25.5007 9.51124 25.5007C9.51124 25.5007 8.81286 26.9927 10.0875 28.2966C11.6695 29.9165 12.0056 30.2505 12.0056 30.2505L12.2605 30.5836ZM12.8998 23.5778C12.8998 23.5778 12.2228 21.7592 14.3695 19.829C15.7122 18.622 15.6482 18.495 15.6482 18.495C15.6482 18.495 16.3466 19.9862 15.0728 21.2901C14.4366 21.9441 13.7975 22.5954 13.1556 23.2439L12.8998 23.5778ZM12.2605 25.7377C12.2605 25.7377 12.9367 23.9191 10.79 21.9889C9.4473 20.7819 9.51124 20.6549 9.51124 20.6549C9.51124 20.6549 8.81286 22.1461 10.0875 23.45C11.6695 25.0699 12.0056 25.403 12.0056 25.403L12.2605 25.7377ZM12.8998 18.732C12.8998 18.732 12.2228 16.9134 14.3695 14.9832C15.7122 13.7762 15.6482 13.6492 15.6482 13.6492C15.6482 13.6492 16.3466 15.1404 15.0728 16.4443C14.4369 17.0986 13.7978 17.7499 13.1556 18.3981L12.8998 18.732ZM12.2605 20.8919C12.2605 20.8919 12.9367 19.0732 10.79 17.1431C9.4473 15.9361 9.51124 15.809 9.51124 15.809C9.51124 15.809 8.81286 17.3002 10.0875 18.6041C11.6695 20.224 12.0056 20.5579 12.0056 20.5579L12.2605 20.8919ZM12.8998 13.8853C12.8998 13.8853 12.2228 12.0667 14.3695 10.1365C15.7122 8.92954 15.6482 8.80168 15.6482 8.80168C15.6482 8.80168 16.3466 10.2937 15.0728 11.5976C14.4368 12.2516 13.7977 12.9026 13.1556 13.5506L12.8998 13.8853ZM12.2605 16.0452C12.2605 16.0452 12.9367 14.2266 10.79 12.2972C9.4473 11.0902 9.51124 10.9624 9.51124 10.9624C9.51124 10.9624 8.81286 12.4544 10.0875 13.7583C11.6695 15.3782 12.0056 15.7113 12.0056 15.7113L12.2605 16.0452Z" fill="#FAFAFA"/>
<path fill-rule="evenodd" clip-rule="evenodd" d="M12.8998 9.03951C12.8998 9.03951 12.2228 7.22089 14.3695 5.2907C15.7122 4.08371 15.6482 3.95667 15.6482 3.95667C15.6482 3.95667 16.3466 5.44788 15.0728 6.75178C14.4366 7.40578 13.7975 8.05706 13.1556 8.70559L12.8998 9.03951ZM12.2605 11.2002C12.2605 11.2002 12.9367 9.38157 10.79 7.45137C9.4473 6.24439 9.51124 6.11734 9.51124 6.11734C9.51124 6.11734 8.81286 7.60774 10.0875 8.91246C11.6695 10.5315 12.0055 10.8655 12.0055 10.8655L12.2605 11.2002ZM145.612 12.4976C145.612 12.4976 146.289 14.3162 144.142 16.2464C142.798 17.4525 142.862 17.5804 142.862 17.5804C142.862 17.5804 142.164 16.0892 143.437 14.7845C145.021 13.1654 145.357 12.8315 145.357 12.8315L145.612 12.4976ZM145.612 8.05405C145.612 8.05405 146.289 9.87267 144.142 11.8029C142.798 13.0107 142.862 13.1369 142.862 13.1369C142.862 13.1369 142.164 11.6457 143.437 10.3418C145.021 8.7227 145.357 8.38878 145.357 8.38878L145.612 8.05405ZM146.252 10.3377C146.252 10.3377 145.576 12.1563 147.723 14.0865C149.065 15.2935 149.001 15.4206 149.001 15.4206C149.001 15.4206 149.699 13.9293 148.426 12.6254C147.79 11.9715 147.15 11.3202 146.508 10.6716L146.252 10.3377ZM146.252 5.69791C146.252 5.69791 145.576 7.51571 147.723 9.44591C149.065 10.6529 149.001 10.7799 149.001 10.7799C149.001 10.7799 149.699 9.28791 148.426 7.98483C146.843 6.36411 146.508 6.03101 146.508 6.03101L146.252 5.69791ZM145.612 17.3442C145.612 17.3442 146.289 19.1629 144.142 21.0922C142.798 22.3 142.862 22.4271 142.862 22.4271C142.862 22.4271 142.164 20.935 143.437 19.632C145.021 18.0112 145.357 17.6781 145.357 17.6781L145.612 17.3442ZM146.252 15.1844C146.252 15.1844 145.576 17.0022 147.723 18.9332C149.065 20.1402 149.001 20.2672 149.001 20.2672C149.001 20.2672 149.699 18.7752 148.426 17.4713C147.79 16.8173 147.15 16.1661 146.508 15.5175L146.252 15.1844ZM145.612 22.1901C145.612 22.1901 146.289 24.0087 144.142 25.9389C142.798 27.1451 142.862 27.2729 142.862 27.2729C142.862 27.2729 142.164 25.7817 143.437 24.477C145.021 22.8579 145.357 22.524 145.357 22.524L145.612 22.1901ZM146.252 20.0294C146.252 20.0294 145.576 21.848 147.723 23.7782C149.065 24.9852 149.001 25.1131 149.001 25.1131C149.001 25.1131 149.699 23.621 148.426 22.3179C146.843 20.6972 146.508 20.3641 146.508 20.3641L146.252 20.0294ZM145.612 27.0359C145.612 27.0359 146.289 28.8545 144.142 30.7847C142.798 31.9917 142.862 32.1196 142.862 32.1196C142.862 32.1196 142.164 30.6275 143.437 29.3237C145.021 27.7038 145.357 27.3707 145.357 27.3707L145.612 27.0359ZM146.252 24.8761C146.252 24.8761 145.576 26.6947 147.723 28.6249C149.065 29.8319 149.001 29.9597 149.001 29.9597C149.001 29.9597 149.699 28.4685 148.426 27.1638C147.79 26.5098 147.15 25.8586 146.508 25.21L146.252 24.8761ZM145.612 31.8818C145.612 31.8818 146.289 33.7004 144.142 35.6306C142.798 36.8376 142.862 36.9654 142.862 36.9654C142.862 36.9654 142.164 35.4734 143.437 34.1695C145.021 32.5496 145.357 32.2165 145.357 32.2165L145.612 31.8818ZM146.252 29.7227C146.252 29.7227 145.576 31.5405 147.723 33.4707C149.065 34.6777 149.001 34.8048 149.001 34.8048C149.001 34.8048 149.699 33.3127 148.426 32.0096C146.843 30.3889 146.508 30.0558 146.508 30.0558L146.252 29.7227ZM145.612 36.7276C145.612 36.7276 146.289 38.5462 144.142 40.4764C142.798 41.6826 142.862 41.8105 142.862 41.8105C142.862 41.8105 142.164 40.3201 143.437 39.0153C145.021 37.3963 145.357 37.0624 145.357 37.0624L145.612 36.7276ZM146.252 34.5686C146.252 34.5686 145.576 36.3864 147.723 38.3166C149.065 39.5235 149.001 39.6514 149.001 39.6514C149.001 39.6514 149.699 38.1602 148.426 36.8555C147.79 36.2015 147.15 35.5503 146.508 34.9017L146.252 34.5686ZM145.612 41.5751C145.612 41.5751 146.289 43.3929 144.142 45.3231C142.798 46.5293 142.862 46.6579 142.862 46.6579C142.862 46.6579 142.164 45.1659 143.437 43.862C145.021 42.2421 145.357 41.909 145.357 41.909L145.612 41.5751ZM146.252 39.4144C146.252 39.4144 145.576 41.2322 147.723 43.1632C149.065 44.3694 149.001 44.4973 149.001 44.4973C149.001 44.4973 149.699 43.0052 148.426 41.7013C146.843 40.0814 146.508 39.7483 146.508 39.7483L146.252 39.4144ZM145.612 46.4201C145.612 46.4201 146.289 48.2379 144.142 50.1689C142.798 51.3759 142.862 51.503 142.862 51.503C142.862 51.503 142.164 50.0117 143.437 48.7079C145.021 47.088 145.357 46.7549 145.357 46.7549L145.612 46.4201ZM146.252 44.2603C146.252 44.2603 145.576 46.0781 147.723 48.0083C149.065 49.2152 149.001 49.3431 149.001 49.3431C149.001 49.3431 149.699 47.8519 148.426 46.5472C146.843 44.9281 146.508 44.5942 146.508 44.5942L146.252 44.2603ZM145.612 51.2668C145.612 51.2668 146.289 53.0846 144.142 55.0148C142.798 56.2218 142.862 56.3496 142.862 56.3496C142.862 56.3496 142.164 54.8584 143.437 53.5537C145.021 51.9338 145.357 51.6007 145.357 51.6007L145.612 51.2668ZM146.252 49.1069C146.252 49.1069 145.576 50.9247 147.723 52.8557C149.065 54.0619 149.001 54.1898 149.001 54.1898C149.001 54.1898 149.699 52.6985 148.426 51.3938C146.843 49.7747 146.508 49.4408 146.508 49.4408L146.252 49.1069ZM145.612 56.1118C145.612 56.1118 146.289 57.9304 144.142 59.8606C142.798 61.0676 142.862 61.1955 142.862 61.1955C142.862 61.1955 142.164 59.7034 143.437 58.3995C145.021 56.7796 145.357 56.4465 145.357 56.4465L145.612 56.1118ZM146.252 53.9528C146.252 53.9528 145.576 55.7714 147.723 57.7008C149.065 58.9086 149.001 59.0356 149.001 59.0356C149.001 59.0356 149.699 57.5436 148.426 56.2397C146.843 54.6198 146.508 54.2867 146.508 54.2867L146.252 53.9528ZM145.612 60.9577C145.612 60.9577 146.289 62.7763 144.142 64.7065C142.798 65.9135 142.862 66.0405 142.862 66.0405C142.862 66.0405 142.164 64.5493 143.437 63.2454C145.021 61.6263 145.357 61.2924 145.357 61.2924L145.612 60.9577ZM146.252 58.7986C146.252 58.7986 145.576 60.6164 147.723 62.5474C149.065 63.7536 149.001 63.8815 149.001 63.8815C149.001 63.8815 149.699 62.3902 148.426 61.0855C147.79 60.4319 147.151 59.7812 146.508 59.1333L146.252 58.7986ZM145.612 65.8043C145.612 65.8043 146.289 67.6221 144.142 69.5531C142.798 70.7593 142.862 70.8872 142.862 70.8872C142.862 70.8872 142.164 69.396 143.437 68.0912C145.021 66.4722 145.357 66.1382 145.357 66.1382L145.612 65.8043ZM146.252 63.6445C146.252 63.6445 145.576 65.4631 147.723 67.3933C149.065 68.6003 149.001 68.7273 149.001 68.7273C149.001 68.7273 149.699 67.2361 148.426 65.9314C147.789 65.2778 147.15 64.6265 146.508 63.9776L146.252 63.6445ZM146.252 68.4903C146.252 68.4903 145.576 70.3089 147.723 72.2391C149.065 73.4453 149.001 73.5732 149.001 73.5732C149.001 73.5732 149.699 72.0819 148.426 70.778C146.843 69.1573 146.508 68.8242 146.508 68.8242L146.252 68.4903ZM106.33 8.92549L44.0742 70.7813L45.148 70.8627L107.471 8.94096L106.33 8.92549ZM110.698 8.92549L48.444 70.7813L49.517 70.8627L111.84 8.94096L110.698 8.92549Z" fill="#FAFAFA"/>
<path fill-rule="evenodd" clip-rule="evenodd" d="M148.647 74.7467C148.647 75.1184 148.573 75.4864 148.43 75.8298C148.287 76.1732 148.078 76.4852 147.813 76.748C147.549 77.0109 147.235 77.2194 146.889 77.3617C146.543 77.504 146.173 77.5772 145.799 77.5773C145.425 77.5773 145.055 77.5042 144.709 77.362C144.363 77.2198 144.049 77.0114 143.785 76.7486C143.52 76.4859 143.31 76.1739 143.167 75.8305C143.024 75.4872 142.95 75.1192 142.95 74.7475C142.95 73.9969 143.25 73.277 143.784 72.7462C144.318 72.2154 145.043 71.9171 145.798 71.917C146.554 71.9169 147.278 72.2149 147.812 72.7456C148.347 73.2763 148.647 73.9961 148.647 74.7467Z" fill="#050505" stroke="#FAFAFA" stroke-width="0.5" stroke-miterlimit="2.613"/>
<path fill-rule="evenodd" clip-rule="evenodd" d="M147.109 74.7467C147.109 74.9177 147.075 75.087 147.01 75.245C146.944 75.403 146.847 75.5466 146.726 75.6676C146.604 75.7886 146.46 75.8846 146.301 75.9502C146.142 76.0158 145.972 76.0496 145.8 76.0498C145.628 76.0499 145.457 76.0164 145.298 75.9511C145.139 75.8859 144.995 75.7901 144.873 75.6693C144.751 75.5485 144.654 75.4051 144.588 75.2472C144.522 75.0893 144.488 74.9201 144.488 74.7491C144.488 74.4038 144.626 74.0726 144.871 73.8282C145.117 73.5838 145.45 73.4464 145.797 73.446C146.145 73.4457 146.478 73.5826 146.724 73.8265C146.97 74.0704 147.108 74.4014 147.109 74.7467Z" fill="#FAFAFA"/>
<path fill-rule="evenodd" clip-rule="evenodd" d="M9.55078 74.9057C9.55078 74.1548 9.85097 73.4348 10.3853 72.9039C10.9196 72.373 11.6444 72.0747 12.4 72.0747C13.1557 72.0747 13.8804 72.373 14.4147 72.9039C14.9491 73.4348 15.2493 74.1548 15.2493 74.9057C15.2493 75.6565 14.9491 76.3765 14.4147 76.9074C13.8804 77.4383 13.1557 77.7366 12.4 77.7366C11.6444 77.7366 10.9196 77.4383 10.3853 76.9074C9.85097 76.3765 9.55078 75.6565 9.55078 74.9057Z" fill="#050505" stroke="#FAFAFA" stroke-width="0.5" stroke-miterlimit="2.613"/>
<path fill-rule="evenodd" clip-rule="evenodd" d="M11.0883 74.9054C11.0839 74.7316 11.1145 74.5587 11.1784 74.3968C11.2422 74.2349 11.3381 74.0874 11.4602 73.9629C11.5824 73.8384 11.7283 73.7394 11.8896 73.6718C12.0508 73.6042 12.224 73.5694 12.399 73.5693C12.574 73.5693 12.7472 73.604 12.9085 73.6715C13.0697 73.739 13.2158 73.8379 13.338 73.9623C13.4602 74.0867 13.5561 74.2342 13.6201 74.396C13.6841 74.5579 13.7148 74.7308 13.7105 74.9046C13.7021 75.2444 13.5603 75.5676 13.3154 75.805C13.0705 76.0424 12.742 76.1754 12.3998 76.1755C12.0576 76.1756 11.729 76.0429 11.484 75.8056C11.239 75.5683 11.097 75.2452 11.0883 74.9054Z" fill="#FAFAFA"/>
<path fill-rule="evenodd" clip-rule="evenodd" d="M9.55078 5.04718C9.55078 4.67552 9.62446 4.3075 9.7676 3.96413C9.91075 3.62076 10.1206 3.30877 10.3851 3.04597C10.6496 2.78317 10.9636 2.5747 11.3092 2.43247C11.6547 2.29024 12.0251 2.21704 12.3992 2.21704C12.7733 2.21704 13.1437 2.29024 13.4892 2.43247C13.8348 2.5747 14.1488 2.78317 14.4133 3.04597C14.6778 3.30877 14.8876 3.62076 15.0308 3.96413C15.1739 4.3075 15.2476 4.67552 15.2476 5.04718C15.2476 5.79778 14.9475 6.51763 14.4133 7.04839C13.8792 7.57914 13.1546 7.87732 12.3992 7.87732C11.6438 7.87732 10.9192 7.57914 10.3851 7.04839C9.85088 6.51763 9.55078 5.79778 9.55078 5.04718Z" fill="#050505" stroke="#FAFAFA" stroke-width="0.5" stroke-miterlimit="2.613"/>
<path fill-rule="evenodd" clip-rule="evenodd" d="M11.0887 5.04715C11.0825 4.87225 11.1118 4.69791 11.1748 4.53451C11.2379 4.37111 11.3334 4.22201 11.4558 4.0961C11.5781 3.97018 11.7247 3.87004 11.8868 3.80164C12.0489 3.73325 12.2233 3.698 12.3994 3.698C12.5755 3.698 12.7499 3.73325 12.912 3.80164C13.0741 3.87004 13.2207 3.97018 13.343 4.0961C13.4653 4.22201 13.5609 4.37111 13.6239 4.53451C13.687 4.69791 13.7163 4.87225 13.7101 5.04715C13.6981 5.38456 13.5547 5.70417 13.3102 5.93865C13.0657 6.17313 12.7392 6.30417 12.3994 6.30417C12.0596 6.30417 11.733 6.17313 11.4886 5.93865C11.2441 5.70417 11.1007 5.38456 11.0887 5.04715Z" fill="#FAFAFA"/>
<path fill-rule="evenodd" clip-rule="evenodd" d="M148.648 4.88914C148.648 5.2609 148.574 5.62901 148.431 5.97243C148.287 6.31586 148.077 6.62788 147.813 6.89068C147.548 7.15349 147.234 7.36192 146.888 7.50409C146.542 7.64626 146.172 7.71938 145.798 7.71928C145.423 7.71917 145.053 7.64584 144.707 7.50347C144.362 7.3611 144.048 7.15249 143.783 6.88953C143.519 6.62658 143.309 6.31444 143.166 5.97093C143.023 5.62742 142.949 5.25928 142.949 4.88751C142.949 4.13669 143.25 3.41672 143.784 2.88596C144.319 2.35521 145.044 2.05716 145.799 2.05737C146.555 2.05759 147.28 2.35606 147.814 2.88711C148.348 3.41817 148.648 4.13832 148.648 4.88914Z" fill="#050505" stroke="#FAFAFA" stroke-width="0.5" stroke-miterlimit="2.613"/>
<path fill-rule="evenodd" clip-rule="evenodd" d="M147.109 4.88922C147.109 5.2345 146.971 5.56568 146.725 5.8099C146.48 6.05412 146.146 6.19139 145.799 6.1915C145.451 6.1916 145.118 6.05455 144.872 5.81048C144.627 5.56641 144.488 5.23532 144.488 4.89004C144.488 4.71908 144.522 4.54978 144.588 4.39181C144.654 4.23384 144.75 4.09029 144.872 3.96936C144.993 3.84844 145.138 3.7525 145.297 3.68702C145.456 3.62155 145.626 3.58782 145.798 3.58777C145.97 3.58772 146.141 3.62134 146.3 3.68671C146.459 3.75209 146.603 3.84794 146.725 3.96879C146.846 4.08964 146.943 4.23313 147.009 4.39106C147.075 4.54898 147.109 4.71826 147.109 4.88922Z" fill="#FAFAFA"/>
<path d="M85.6187 35.5777C84.6935 34.2914 83.346 33.3658 81.808 32.9602C80.2701 32.5547 78.6379 32.6945 77.1926 33.3557C75.7472 34.0169 74.5791 35.1581 73.8893 36.5827C73.1994 38.0074 73.0311 39.6265 73.4132 41.1612C73.7953 42.6959 74.7039 44.0503 75.9827 44.9911C77.2614 45.932 78.8303 46.4004 80.4192 46.3159C82.0081 46.2313 83.5176 45.599 84.6879 44.5278C85.8582 43.4567 86.6161 42.0136 86.831 40.4471M86.831 40.4471L97.1025 43.3791ZM97.1025 43.3791C95.3402 51.1186 88.3761 56.8977 80.0521 56.8977C70.3987 56.8977 62.5723 49.1208 62.5723 39.5293C62.5723 29.9369 70.3987 22.1608 80.0521 22.1608C87.6998 22.1608 94.2033 27.0416 96.5738 33.8397M96.5738 33.8397L85.6187 35.5777Z" stroke="#050505" stroke-width="0.5" stroke-miterlimit="2.613"/>
<path fill-rule="evenodd" clip-rule="evenodd" d="M55.1919 39.5293C55.1919 49.1208 47.3655 56.8977 37.7112 56.8977C28.0569 56.8977 20.2305 49.1208 20.2305 39.5293C20.2305 29.9369 28.0569 22.1608 37.7112 22.1608C47.3655 22.1608 55.1919 29.9369 55.1919 39.5293Z" fill="#FAFAFA"/>
<path fill-rule="evenodd" clip-rule="evenodd" d="M44.5517 39.5293C44.5515 41.3318 43.8306 43.0604 42.5476 44.3348C41.2647 45.6092 39.5247 46.3251 37.7106 46.3249C35.8964 46.3246 34.1566 45.6084 32.874 44.3337C31.5913 43.0589 30.8709 41.3302 30.8711 39.5276C30.8713 37.7251 31.5922 35.9965 32.8752 34.7221C34.1581 33.4477 35.8981 32.7318 37.7122 32.7321C39.5264 32.7323 41.2662 33.4485 42.5488 34.7233C43.8315 35.998 44.5519 37.7268 44.5517 39.5293Z" fill="#050505"/>
<path fill-rule="evenodd" clip-rule="evenodd" d="M85.6187 35.5777C84.6935 34.2914 83.346 33.3658 81.808 32.9602C80.2701 32.5547 78.6379 32.6945 77.1926 33.3557C75.7472 34.0169 74.5791 35.1581 73.8893 36.5828C73.1994 38.0074 73.0311 39.6265 73.4132 41.1612C73.7953 42.6959 74.7039 44.0503 75.9827 44.9911C77.2614 45.932 78.8303 46.4004 80.4192 46.3159C82.0081 46.2313 83.5176 45.599 84.6879 44.5278C85.8582 43.4567 86.6161 42.0136 86.831 40.4471L97.1025 43.3791C95.3402 51.1186 88.3761 56.8986 80.0521 56.8986C70.3987 56.8986 62.5723 49.1216 62.5723 39.5301C62.5723 29.9378 70.3987 22.1616 80.0521 22.1616C87.6998 22.1616 94.2033 27.0425 96.5738 33.8405L85.6187 35.5777ZM130.115 36.8751C132.784 35.7186 134.67 32.636 134.67 29.5582C134.671 28.5729 134.475 27.5973 134.096 26.687C133.716 25.7767 133.16 24.9496 132.459 24.2529C131.757 23.5563 130.925 23.0037 130.009 22.6269C129.092 22.25 128.11 22.0562 127.119 22.0565L126.279 22.0321H104.656V55.9962H128.609L128.364 55.9791C133.512 55.9791 137.686 51.832 137.686 46.7166C137.686 42.1827 134.446 38.2034 130.115 37.4069V36.8751Z" fill="#FAFAFA"/>
<path fill-rule="evenodd" clip-rule="evenodd" d="M122.977 29.59C124.34 29.59 125.446 30.7114 125.446 32.0675C125.446 32.7179 125.186 33.3416 124.723 33.8015C124.26 34.2614 123.632 34.5197 122.977 34.5197V34.5124H115.985V29.5908L122.977 29.59ZM124.692 42.4294C126.157 42.4294 127.348 43.6356 127.348 45.0934C127.348 46.5512 126.157 47.7322 124.692 47.7322V47.7232H115.889V42.4294H124.692Z" fill="#050505"/>
</svg>
