    <svg
          width="6"
          height="12"
          viewBox="0 0 6 12"
          fill="none"
          xmlns="http://www.w3.org/2000/svg"
        >
          <path
            d="M0.892742 0C0.665886 0 0.439029 0.0981617 0.259932 0.308503C0.0933952 0.506417 0 0.773456 0 1.05171C0 1.32997 0.0933952 1.597 0.259932 1.79492L3.84188 6.00175L0.259932 10.2086C0.0933952 10.4065 0 10.6735 0 10.9518C0 11.2301 0.0933952 11.4971 0.259932 11.695C0.606187 12.1017 1.1793 12.1017 1.52555 11.695L5.74031 6.74496C6.08656 6.3383 6.08656 5.66521 5.74031 5.25855L1.52555 0.308503C1.34646 0.0981617 1.1196 0 0.892742 0Z"
            fill="#050505"
          />
        </svg>