<svg width="25" height="24" viewBox="0 0 25 24" fill="none" xmlns="http://www.w3.org/2000/svg">
<path d="M9 14.5C9.66304 14.5 10.2989 14.2366 10.7678 13.7678C11.2366 13.2989 11.5 12.663 11.5 12C11.5 10.62 11 10 10.5 9C9.428 6.857 10.276 4.946 12.5 3C13 5.5 14.5 7.9 16.5 9.5C18.5 11.1 19.5 13 19.5 15C19.5 15.9193 19.3189 16.8295 18.9672 17.6788C18.6154 18.5281 18.0998 19.2997 17.4497 19.9497C16.7997 20.5998 16.0281 21.1154 15.1788 21.4672C14.3295 21.8189 13.4193 22 12.5 22C11.5807 22 10.6705 21.8189 9.82122 21.4672C8.97194 21.1154 8.20026 20.5998 7.55025 19.9497C6.90024 19.2997 6.38463 18.5281 6.03284 17.6788C5.68106 16.8295 5.5 15.9193 5.5 15C5.5 13.847 5.933 12.706 6.5 12C6.5 12.663 6.76339 13.2989 7.23223 13.7678C7.70107 14.2366 8.33696 14.5 9 14.5Z" stroke="#050505" stroke-width="2" stroke-linecap="round" stroke-linejoin="round"/>
</svg>
