<svg width="24" height="24" viewBox="0 0 24 24" fill="none" xmlns="http://www.w3.org/2000/svg">
<path d="M3.9995 14C3.81027 14.0007 3.62474 13.9476 3.46446 13.847C3.30418 13.7464 3.17574 13.6024 3.09405 13.4317C3.01237 13.261 2.9808 13.0706 3.003 12.8827C3.02521 12.6948 3.10028 12.517 3.2195 12.37L13.1195 2.17004C13.1938 2.08432 13.295 2.0264 13.4065 2.00577C13.518 1.98515 13.6332 2.00305 13.7332 2.05654C13.8332 2.11004 13.9121 2.19594 13.9568 2.30015C14.0016 2.40436 14.0096 2.52069 13.9795 2.63004L12.0595 8.65004C12.0029 8.80156 11.9839 8.96456 12.0041 9.12505C12.0243 9.28553 12.0832 9.43872 12.1756 9.57147C12.268 9.70421 12.3913 9.81256 12.5348 9.8872C12.6783 9.96185 12.8377 10.0006 12.9995 10H19.9995C20.1887 9.9994 20.3743 10.0525 20.5345 10.1531C20.6948 10.2537 20.8233 10.3977 20.905 10.5684C20.9866 10.7391 21.0182 10.9295 20.996 11.1174C20.9738 11.3053 20.8987 11.4831 20.7795 11.63L10.8795 21.83C10.8052 21.9158 10.704 21.9737 10.5925 21.9943C10.481 22.0149 10.3658 21.997 10.2658 21.9435C10.1658 21.89 10.0869 21.8041 10.0422 21.6999C9.99742 21.5957 9.98943 21.4794 10.0195 21.37L11.9395 15.35C11.9961 15.1985 12.0151 15.0355 11.9949 14.875C11.9747 14.7145 11.9158 14.5614 11.8234 14.4286C11.731 14.2959 11.6077 14.1875 11.4642 14.1129C11.3207 14.0382 11.1613 13.9995 10.9995 14H3.9995Z" stroke="#050505" stroke-width="2" stroke-linecap="round" stroke-linejoin="round"/>
</svg>
