<svg width="18" height="18" viewBox="0 0 18 18" fill="none" xmlns="http://www.w3.org/2000/svg">
<path d="M15.1002 14.8859L10.6987 7.96852L15.0419 3.19078C15.1401 3.08006 15.1907 2.93508 15.1828 2.78727C15.1748 2.63947 15.1089 2.50076 14.9994 2.40121C14.8899 2.30166 14.7455 2.2493 14.5976 2.25548C14.4497 2.26166 14.3102 2.32588 14.2094 2.43422L10.0722 6.98484L7.22524 2.51086C7.17447 2.43095 7.10436 2.36515 7.02139 2.31955C6.93843 2.27395 6.8453 2.25003 6.75063 2.25H3.37563C3.27477 2.24995 3.17576 2.27702 3.08896 2.32837C3.00215 2.37972 2.93075 2.45347 2.88223 2.54188C2.83371 2.6303 2.80985 2.73014 2.81316 2.83094C2.81646 2.93174 2.84681 3.0298 2.90102 3.11484L7.30258 10.0315L2.95938 14.8127C2.90866 14.8672 2.86926 14.9312 2.84346 15.001C2.81766 15.0709 2.80598 15.1451 2.80908 15.2195C2.81219 15.2939 2.83003 15.3669 2.86156 15.4343C2.8931 15.5017 2.9377 15.5622 2.99279 15.6123C3.04787 15.6623 3.11235 15.701 3.18247 15.7259C3.2526 15.7509 3.32698 15.7617 3.40131 15.7577C3.47564 15.7537 3.54844 15.735 3.61548 15.7026C3.68252 15.6703 3.74248 15.625 3.79188 15.5693L7.92907 11.0187L10.776 15.4927C10.8272 15.5719 10.8975 15.637 10.9804 15.682C11.0634 15.727 11.1563 15.7503 11.2506 15.75H14.6256C14.7264 15.75 14.8253 15.7229 14.912 15.6716C14.9987 15.6202 15.07 15.5466 15.1185 15.4583C15.167 15.37 15.1909 15.2703 15.1877 15.1696C15.1845 15.0689 15.1543 14.9709 15.1002 14.8859ZM11.5593 14.625L4.40008 3.375H6.43915L13.6012 14.625H11.5593Z" fill="white"/>
</svg>
