<svg width="18" height="18" viewBox="0 0 18 18" fill="none" xmlns="http://www.w3.org/2000/svg">
<g clip-path="url(#clip0_943_1344)">
<path d="M12.75 1.5H5.25C3.17893 1.5 1.5 3.17893 1.5 5.25V12.75C1.5 14.8211 3.17893 16.5 5.25 16.5H12.75C14.8211 16.5 16.5 14.8211 16.5 12.75V5.25C16.5 3.17893 14.8211 1.5 12.75 1.5Z" stroke="white" stroke-width="1.5" stroke-linecap="round" stroke-linejoin="round"/>
<path d="M12.0008 8.52748C12.0933 9.15167 11.9867 9.78914 11.6961 10.3492C11.4055 10.9093 10.9456 11.3635 10.382 11.6472C9.81834 11.9309 9.17959 12.0297 8.5566 11.9294C7.9336 11.8292 7.35808 11.535 6.91189 11.0889C6.46569 10.6427 6.17156 10.0671 6.07131 9.44414C5.97106 8.82115 6.06981 8.1824 6.3535 7.61876C6.6372 7.05512 7.0914 6.59529 7.6515 6.30466C8.21159 6.01404 8.84907 5.90742 9.47326 5.99998C10.1099 6.0944 10.6994 6.39108 11.1545 6.84621C11.6097 7.30134 11.9063 7.89079 12.0008 8.52748Z" stroke="white" stroke-width="1.5" stroke-linecap="round" stroke-linejoin="round"/>
<path d="M13.125 4.875H13.1325" stroke="white" stroke-width="1.5" stroke-linecap="round" stroke-linejoin="round"/>
</g>
<defs>
<clipPath id="clip0_943_1344">
<rect width="18" height="18" fill="white"/>
</clipPath>
</defs>
</svg>
