<svg width="24" height="24" viewBox="0 0 24 24" fill="none" xmlns="http://www.w3.org/2000/svg">
<path d="M9.93743 15.5C9.84815 15.1539 9.66777 14.8381 9.41504 14.5854C9.16232 14.3327 8.8465 14.1523 8.50043 14.063L2.36543 12.481C2.26076 12.4513 2.16864 12.3883 2.10304 12.3014C2.03744 12.2146 2.00195 12.1088 2.00195 12C2.00195 11.8912 2.03744 11.7854 2.10304 11.6986C2.16864 11.6118 2.26076 11.5487 2.36543 11.519L8.50043 9.93601C8.84638 9.84681 9.16212 9.66658 9.41483 9.41404C9.66754 9.16151 9.84799 8.84589 9.93743 8.50001L11.5194 2.36501C11.5488 2.25992 11.6118 2.16735 11.6987 2.1014C11.7857 2.03545 11.8918 1.99976 12.0009 1.99976C12.11 1.99976 12.2162 2.03545 12.3031 2.1014C12.39 2.16735 12.453 2.25992 12.4824 2.36501L14.0634 8.50001C14.1527 8.84608 14.3331 9.1619 14.5858 9.41462C14.8385 9.66734 15.1544 9.84773 15.5004 9.93701L21.6354 11.518C21.7409 11.5471 21.834 11.61 21.9003 11.6971C21.9666 11.7841 22.0025 11.8906 22.0025 12C22.0025 12.1094 21.9666 12.2159 21.9003 12.3029C21.834 12.39 21.7409 12.4529 21.6354 12.482L15.5004 14.063C15.1544 14.1523 14.8385 14.3327 14.5858 14.5854C14.3331 14.8381 14.1527 15.1539 14.0634 15.5L12.4814 21.635C12.452 21.7401 12.389 21.8327 12.3021 21.8986C12.2152 21.9646 12.109 22.0003 11.9999 22.0003C11.8908 22.0003 11.7847 21.9646 11.6977 21.8986C11.6108 21.8327 11.5478 21.7401 11.5184 21.635L9.93743 15.5Z" stroke="#050505" stroke-width="2" stroke-linecap="round" stroke-linejoin="round"/>
<path d="M20 3V7" stroke="#050505" stroke-width="2" stroke-linecap="round" stroke-linejoin="round"/>
<path d="M22 4.99976H18" stroke="#050505" stroke-width="2" stroke-linecap="round" stroke-linejoin="round"/>
<path d="M4 17.0004V19.0004" stroke="#050505" stroke-width="2" stroke-linecap="round" stroke-linejoin="round"/>
<path d="M5 18H3" stroke="#050505" stroke-width="2" stroke-linecap="round" stroke-linejoin="round"/>
</svg>
